<svg xmlns="http://www.w3.org/2000/svg" width="1210" height="890" viewBox="99 0 1210 890">
  <path d="M170.51,325.851c-43.023,68.981-58.792,155.019-40.379,234.2C172.7,743.108,360.221,804.26,527.412,774.6c103.781-18.414,203.1-74.147,311.091-73.843,56.379.159,97.766,28.934,150.61,40.5,55.873,12.225,116.985,8.105,167.938-19.276,58.644-31.515,96.4-97.218,112.355-159.853,30.328-119.048,9.389-245.562-80.049-333.223-75.092-73.6-178.749-104.725-281.239-115.009-77.345-7.761-155.335-4.091-232.959.013C531.389,121.5,392.9,137.978,271.566,221.824,231.512,249.5,196.337,284.44,170.51,325.851Z" fill="#efefef"/>
  <path d="M356.18,448.94V398.283a3.5,3.5,0,0,0-7,0v6.942c-.045,0-.087-.014-.133-.014l-17.526-.122v-43.6c0-1.874-.1-3.725-.259-5.558a2.189,2.189,0,0,0-.1-1.177,63.282,63.282,0,0,0-33.279-49.082,2.577,2.577,0,0,0-.74-.379,63.1,63.1,0,0,0-91.488,48.684,2.531,2.531,0,0,0-.265,2.756c-.118,1.572-.2,3.155-.2,4.756v13.583a2.345,2.345,0,0,0,0,1.3v18.86a2.345,2.345,0,0,0,0,1.3v8.715a2.567,2.567,0,0,0-.355-.038l-16.938-.118v-6.81a3.5,3.5,0,0,0-7,0V448.94a87.743,87.743,0,0,0,84.856,87.592l.122,64.158c-20.954.572-40.384,6.69-55,17.4a2.6,2.6,0,0,0,1.536,4.7H325.8a2.6,2.6,0,0,0,1.536-4.7c-14.495-10.614-33.715-16.725-54.463-17.386l-.122-64.222A87.749,87.749,0,0,0,356.18,448.94Zm-168.283,0V410.293l16.9.118h.019a2.577,2.577,0,0,0,.373-.037v5.019a2.345,2.345,0,0,0,0,1.3v18.86a2.345,2.345,0,0,0,0,1.3v10.824a63.486,63.486,0,0,0,.417,7.153,2.569,2.569,0,0,0,.516,3.586,63.331,63.331,0,0,0,33.069,45.261,2.581,2.581,0,0,0,1.559.8,63.134,63.134,0,0,0,89.9-46.416,2.545,2.545,0,0,0,.4-2.8,63.431,63.431,0,0,0,.472-7.588V410.289l17.49.122h.019c.052,0,.1-.012.15-.015V448.94a80.642,80.642,0,0,1-161.283,0Z" fill="#343b3f"/>
  <path d="M1226.767,136.655a2,2,0,0,0-2.741-.694L793.749,392.322A108.97,108.97,0,0,0,606.474,503.77L178.924,758.415a2,2,0,1,0,2.047,3.437L608.55,507.189A108.97,108.97,0,0,0,795.775,395.77l430.3-256.373A2,2,0,0,0,1226.767,136.655Z" fill="#343b3f"/>
  <rect x="817.961" y="97.076" width="204.453" height="135.211" rx="34.803" ry="34.803" fill="#343b3f"/>
  <path d="M1000.928,356.139h134.848a34.8,34.8,0,0,1,34.8,34.8v65.606a34.8,34.8,0,0,1-34.8,34.8H1000.929a34.8,34.8,0,0,1-34.8-34.8V390.942A34.8,34.8,0,0,1,1000.928,356.139Z" fill="#343b3f"/>
  <path d="M1167.28,608.271H809.84c-3.838-7.049-25.307-44.964-46.455-51.774a2,2,0,0,0-2.363,2.872,150.122,150.122,0,0,1,16.934,48.9H655.747a20.408,20.408,0,0,0-20.384,20.385V787.362a20.407,20.407,0,0,0,20.384,20.384H1167.28a20.407,20.407,0,0,0,20.384-20.384V628.656A20.408,20.408,0,0,0,1167.28,608.271Z" fill="#343b3f"/>
  <path d="M805.726,449.085A104.995,104.995,0,1,1,700.732,344.091,105.114,105.114,0,0,1,805.726,449.085Z" fill="#f24452"/>
  <path d="M1000.928,360.139h134.848a30.8,30.8,0,0,1,30.8,30.8v65.606a30.8,30.8,0,0,1-30.8,30.8H1000.929a30.8,30.8,0,0,1-30.8-30.8V390.942A30.8,30.8,0,0,1,1000.928,360.139Z" fill="#ffd671"/>
  <rect x="821.961" y="101.076" width="196.453" height="127.211" rx="30.803" ry="30.803" fill="#b8e038"/>
  <path d="M1183.663,787.362a16.4,16.4,0,0,1-16.384,16.384H655.747a16.4,16.4,0,0,1-16.384-16.384V628.656a16.4,16.4,0,0,1,16.384-16.385H780.226a2,2,0,0,0,1.991-2.183c-.087-.948-2.161-22.163-14.966-47.5,19.736,11.219,39.411,48.209,39.624,48.613a2,2,0,0,0,1.77,1.067H1167.28a16.4,16.4,0,0,1,16.384,16.385Z" fill="#fff"/>
  <path d="M916.33,141.145a2.561,2.561,0,0,1,.97-1.137,2.518,2.518,0,0,1,1.371-.4,2.879,2.879,0,0,1,1.9.7,2.15,2.15,0,0,1,.836,1.7,2.369,2.369,0,0,1-.267,1.069l-19.185,42.648a2.928,2.928,0,0,1-1.2,1.338,3.463,3.463,0,0,1-3.476,0,2.928,2.928,0,0,1-1.2-1.338l-19.118-42.648a2.861,2.861,0,0,1-.2-1,2.186,2.186,0,0,1,.869-1.772,3.012,3.012,0,0,1,1.939-.7,2.443,2.443,0,0,1,2.339,1.538l17.247,38.972,17.179-38.972Z"/>
  <path d="M946.613,187.737a21.533,21.533,0,0,1-11.4-2.942,19.3,19.3,0,0,1-7.454-8.356,29.152,29.152,0,0,1-2.607-12.768,29.873,29.873,0,0,1,2.573-12.868,18.862,18.862,0,0,1,7.421-8.357,24.052,24.052,0,0,1,22.928,0,18.861,18.861,0,0,1,7.42,8.357,29.691,29.691,0,0,1,2.574,12.8,29.374,29.374,0,0,1-2.607,12.8,19.272,19.272,0,0,1-7.454,8.389,21.535,21.535,0,0,1-11.4,2.942Zm0-4.679q7.486,0,11.665-5.047t4.178-14.406q0-9.358-4.144-14.372t-11.7-5.014q-7.488,0-11.665,5.047T930.769,163.6q0,9.292,4.179,14.372t11.665,5.081Z"/>
  <path d="M1049.441,446.96a22.169,22.169,0,0,1-11.565-2.908,19.2,19.2,0,0,1-7.521-8.356,32.513,32.513,0,0,1,0-25.669,19.2,19.2,0,0,1,7.521-8.356,22.177,22.177,0,0,1,11.565-2.908,24.677,24.677,0,0,1,8.456,1.437,20.527,20.527,0,0,1,6.919,4.111,3.112,3.112,0,0,1,1.069,2.339,2.63,2.63,0,0,1-.535,1.638,1.564,1.564,0,0,1-1.27.7,3.778,3.778,0,0,1-1.939-.735,24.935,24.935,0,0,0-6.183-3.743,17.662,17.662,0,0,0-6.384-1.069q-7.755,0-11.933,5.047t-4.178,14.339q0,9.358,4.178,14.4t11.933,5.047a17.729,17.729,0,0,0,6.35-1.069,24.63,24.63,0,0,0,6.217-3.743,3.777,3.777,0,0,1,1.939-.735,1.586,1.586,0,0,1,1.27.668,2.59,2.59,0,0,1,.535,1.671,3.112,3.112,0,0,1-1.069,2.339,20.529,20.529,0,0,1-6.919,4.111,24.679,24.679,0,0,1-8.456,1.437Z"/>
  <path d="M1093.961,446.96a22.168,22.168,0,0,1-11.564-2.908,19.19,19.19,0,0,1-7.521-8.356,32.513,32.513,0,0,1,0-25.669,19.19,19.19,0,0,1,7.521-8.356,22.176,22.176,0,0,1,11.564-2.908,24.681,24.681,0,0,1,8.456,1.437,20.526,20.526,0,0,1,6.919,4.111,3.115,3.115,0,0,1,1.069,2.339,2.63,2.63,0,0,1-.535,1.638,1.566,1.566,0,0,1-1.27.7,3.776,3.776,0,0,1-1.939-.735,24.933,24.933,0,0,0-6.183-3.743,17.663,17.663,0,0,0-6.384-1.069q-7.754,0-11.932,5.047t-4.178,14.339q0,9.358,4.178,14.4t11.932,5.047a17.73,17.73,0,0,0,6.35-1.069,24.63,24.63,0,0,0,6.217-3.743,3.775,3.775,0,0,1,1.939-.735,1.587,1.587,0,0,1,1.27.668,2.591,2.591,0,0,1,.535,1.671,3.115,3.115,0,0,1-1.069,2.339,20.528,20.528,0,0,1-6.919,4.111,24.683,24.683,0,0,1-8.456,1.437Z"/>
  <g>
    <path d="M822.517,666.675a8.263,8.263,0,0,0-8.259-8.259H693.9a8.258,8.258,0,1,0,0,16.517H814.258a8.262,8.262,0,0,0,8.259-8.258Z" fill="#007aff" fill-rule="evenodd"/>
    <path d="M757.535,707.868a8.263,8.263,0,0,0-8.259-8.259H693.9a8.259,8.259,0,0,0,0,16.518h55.38a8.263,8.263,0,0,0,8.259-8.259Z" fill="#007aff" fill-rule="evenodd"/>
    <path d="M820.293,748.339a8.263,8.263,0,0,0-8.259-8.259H693.9a8.259,8.259,0,0,0,0,16.518H812.034a8.263,8.263,0,0,0,8.259-8.259Z" fill="#007aff" fill-rule="evenodd"/>
    <path d="M1030.291,666.675a8.262,8.262,0,0,0-8.258-8.259H852.84a8.258,8.258,0,0,0,0,16.517h169.193a8.262,8.262,0,0,0,8.258-8.258Z" fill="#007aff" fill-rule="evenodd"/>
    <path d="M983.742,707.868a8.263,8.263,0,0,0-8.259-8.259H788.773a8.259,8.259,0,0,0,0,16.518h186.71a8.263,8.263,0,0,0,8.259-8.259Z" fill="#007aff" fill-rule="evenodd"/>
    <path d="M960.492,748.339a8.263,8.263,0,0,0-8.259-8.259H854.88a8.259,8.259,0,0,0,0,16.518h97.353a8.263,8.263,0,0,0,8.259-8.259Z" fill="#007aff" fill-rule="evenodd"/>
    <path d="M1133.539,666.675a8.263,8.263,0,0,0-8.259-8.259h-65.367a8.258,8.258,0,1,0,0,16.517h65.367a8.262,8.262,0,0,0,8.259-8.258Z" fill="#007aff" fill-rule="evenodd"/>
    <path d="M1133.539,707.868a8.263,8.263,0,0,0-8.259-8.259H1013.694a8.259,8.259,0,0,0,0,16.518H1125.28a8.263,8.263,0,0,0,8.259-8.259Z" fill="#007aff" fill-rule="evenodd"/>
    <path d="M1076.578,748.339a8.262,8.262,0,0,0-8.258-8.259H991.3a8.259,8.259,0,1,0,0,16.518h77.017a8.262,8.262,0,0,0,8.258-8.259Z" fill="#007aff" fill-rule="evenodd"/>
  </g>
  <path d="M733.912,443.968h0l-44.15-37.1a5.809,5.809,0,0,0-9.544,4.446v74.2a5.812,5.812,0,0,0,9.544,4.446l44.15-37.1a5.808,5.808,0,0,0,0-8.893Z" fill="#343b3f"/>
  <path d="M731.338,449.8l-44.15,37.1a1.808,1.808,0,0,1-2.971-1.384v-74.2a1.809,1.809,0,0,1,2.971-1.384l44.149,37.1a1.807,1.807,0,0,1,0,2.769Z" fill="#fff"/>
  <path d="M238.488,310.45v24.51a2.6,2.6,0,0,0,5.2,0V308.033a2.551,2.551,0,0,0-.029-.285A58.648,58.648,0,0,1,256.61,303.5v31.459a2.6,2.6,0,0,0,5.2,0V302.779c0-.028-.007-.053-.008-.081a57.787,57.787,0,0,1,13.37.034v32.229a2.6,2.6,0,0,0,5.2,0v-31.4a58.683,58.683,0,0,1,13.361,4.5v26.9a2.6,2.6,0,0,0,5.2,0v-24.1A59.281,59.281,0,0,1,326.9,352.967H283.763a2.6,2.6,0,1,0,0,5.2h43.659c.061,1.1.1,2.209.1,3.325v11.633H283.763a2.6,2.6,0,1,0,0,5.2h43.758v14.959H283.763a2.6,2.6,0,0,0,0,5.2h43.758v14.958H283.763a2.6,2.6,0,1,0,0,5.2h43.758V433.6H283.763a2.6,2.6,0,1,0,0,5.2h43.758v8.874a59.576,59.576,0,0,1-.312,6.085H283.763a2.6,2.6,0,1,0,0,5.2h42.665a59.325,59.325,0,0,1-27.495,39.347V474.65a2.6,2.6,0,0,0-5.2,0V501.11a58.693,58.693,0,0,1-12.921,4.4V474.65a2.6,2.6,0,0,0-5.2,0v31.728a58.291,58.291,0,0,1-13.362.147V474.65a2.6,2.6,0,0,0-5.2,0v31.093a58.657,58.657,0,0,1-13.362-4.312V474.65a2.6,2.6,0,0,0-5.2,0v24.066a59.321,59.321,0,0,1-28.206-39.757h42.352a2.6,2.6,0,1,0,0-5.2H209.5a59.576,59.576,0,0,1-.312-6.085V438.8h43.444a2.6,2.6,0,1,0,0-5.2H209.19V418.642h43.444a2.6,2.6,0,1,0,0-5.2H209.19V398.484h43.444a2.6,2.6,0,1,0,0-5.2H209.19V378.325h43.444a2.6,2.6,0,1,0,0-5.2H209.19V361.492c0-1.116.038-2.224.1-3.325h43.345a2.6,2.6,0,1,0,0-5.2H209.812A59.278,59.278,0,0,1,238.488,310.45Z" fill="#9fd1ff"/>
  <path d="M221.233,617.584c13.469-7.62,30.142-11.751,47.872-11.751s34.4,4.131,47.872,11.751Z" fill="#007aff"/>
  <path d="M231.738,211.831a2.413,2.413,0,0,0,4.826,0v-7.206h3.928v16.349a2.413,2.413,0,1,0,4.826,0V204.625h3.929v7.206a2.413,2.413,0,0,0,4.826,0v-7.206H258v21.4a2.413,2.413,0,0,0,4.826,0v-21.4h3.929v30.42a2.413,2.413,0,1,0,4.826,0v-30.42h3.928v41.9a2.413,2.413,0,1,0,4.826,0v-41.9h3.929v21.4a2.413,2.413,0,1,0,4.826,0v-21.4h3.928v13.734a2.413,2.413,0,1,0,4.826,0V204.625h3.929v7.206a2.413,2.413,0,0,0,4.826,0v-7.206h3.929v4.087a2.413,2.413,0,1,0,4.826,0v-4.087h3.928v13.734a2.413,2.413,0,1,0,4.826,0V204.625h3.929v32.2a2.413,2.413,0,1,0,4.826,0v-32.2h3.928v40a2.413,2.413,0,0,0,4.826,0v-40h3.929v49.568a2.413,2.413,0,0,0,4.826,0V204.625H354.3v63.663a2.413,2.413,0,1,0,4.826,0V204.625h3.929v81.539a2.413,2.413,0,1,0,4.826,0V204.625h3.928v49.568a2.413,2.413,0,1,0,4.826,0V204.625h4.069l.117,25.436a2.413,2.413,0,0,0,2.413,2.4h.012a2.413,2.413,0,0,0,2.4-2.424l-.117-25.415h4.047v13.734a2.413,2.413,0,1,0,4.826,0V204.625h3.928v49.568a2.413,2.413,0,1,0,4.826,0V204.625h3.929v63.663a2.413,2.413,0,1,0,4.826,0V204.625h3.928v37.891a2.413,2.413,0,0,0,4.826,0V204.625h4.069l.117,25.437a2.413,2.413,0,0,0,4.826-.023l-.118-25.414h4.047v13.734a2.413,2.413,0,1,0,4.826,0V204.625h3.928v63.663a2.413,2.413,0,1,0,4.826,0V204.625h3.929v49.654a2.413,2.413,0,0,0,4.826,0V204.625h4.114l.163,35.263a2.413,2.413,0,0,0,2.413,2.4h.012a2.413,2.413,0,0,0,2.4-2.424l-.163-35.24h4.231l.117,25.436a2.456,2.456,0,0,0,2.424,2.4,2.414,2.414,0,0,0,2.4-2.424l-.117-25.415h4.047v16.629a2.413,2.413,0,0,0,4.826,0V204.625h3.929v8.791a2.413,2.413,0,0,0,4.826,0v-8.791H495.5v4.362a2.413,2.413,0,0,0,4.826,0v-4.362h3.929v2a2.413,2.413,0,1,0,4.826,0v-2h3.928v13.734a2.413,2.413,0,0,0,4.826,0V204.625h3.929v43.112a2.413,2.413,0,0,0,4.826,0V204.625h3.928v66.611a2.413,2.413,0,1,0,4.826,0V204.625h3.929v55.648a2.413,2.413,0,1,0,4.826,0V204.625h4.091l.143,36.156a2.413,2.413,0,0,0,2.413,2.4h.01a2.413,2.413,0,0,0,2.4-2.423l-.143-36.137h4.072v16.629a2.413,2.413,0,0,0,4.826,0V204.625h3.928v8.791a2.413,2.413,0,0,0,4.826,0v-8.791H574.6v4.362a2.413,2.413,0,0,0,4.826,0v-4.362h3.928v2a2.413,2.413,0,0,0,4.826,0v-2H592.1v55.648a2.413,2.413,0,0,0,4.826,0V204.625h3.928v66.611a2.413,2.413,0,0,0,4.826,0V204.625h3.929v55.648a2.413,2.413,0,1,0,4.826,0V204.625h4.054l.106,26.839a2.413,2.413,0,0,0,2.413,2.4h.01a2.413,2.413,0,0,0,2.4-2.423l-.106-26.82h4.034v16.629a2.413,2.413,0,0,0,4.826,0V204.625h3.929v8.791a2.413,2.413,0,0,0,4.826,0v-8.791h3.928v4.362a2.413,2.413,0,0,0,4.826,0v-4.362h3.929v13.734a2.413,2.413,0,0,0,4.826,0V204.625h3.929v32.2a2.413,2.413,0,0,0,4.826,0v-32.2h3.928v40a2.413,2.413,0,0,0,4.826,0v-40h3.929v8.791a2.413,2.413,0,0,0,4.826,0v-8.791h3.928v4.362a2.413,2.413,0,0,0,4.826,0v-4.362h3.929v2a2.413,2.413,0,0,0,4.826,0v-2h3.928v24.008a2.413,2.413,0,0,0,4.826,0V204.625H714.9v49.568a2.413,2.413,0,1,0,4.825,0V204.625h3.93v63.663a2.413,2.413,0,1,0,4.825,0V204.625h3.93v37.891a2.413,2.413,0,1,0,4.825,0V204.625h4.069l.118,25.437a2.412,2.412,0,0,0,2.413,2.4h.011a2.413,2.413,0,0,0,2.4-2.424l-.117-25.414h4.046v8.791a2.413,2.413,0,1,0,4.825,0v-8.791h3.931v4.362a2.413,2.413,0,1,0,4.825,0v-4.362h7.656a2.413,2.413,0,0,0,0-4.826h-7.656v-4.362a2.413,2.413,0,1,0-4.825,0V199.8H755v-8.791a2.413,2.413,0,1,0-4.825,0V199.8h-4.068l-.118-25.438a2.412,2.412,0,0,0-2.413-2.4h-.011a2.413,2.413,0,0,0-2.4,2.424l.117,25.415h-4.047V161.907a2.413,2.413,0,1,0-4.825,0V199.8h-3.93V136.135a2.413,2.413,0,1,0-4.825,0V199.8h-3.93V150.229a2.413,2.413,0,1,0-4.825,0V199.8h-3.929V175.789a2.413,2.413,0,0,0-4.826,0V199.8h-3.928v-2a2.413,2.413,0,1,0-4.826,0v2h-3.929v-4.362a2.413,2.413,0,1,0-4.826,0V199.8h-3.928v-8.791a2.413,2.413,0,1,0-4.826,0V199.8h-3.929v-40a2.413,2.413,0,1,0-4.826,0v40H667.2V167.6a2.413,2.413,0,1,0-4.826,0v32.2h-3.929V186.064a2.413,2.413,0,0,0-4.826,0V199.8H649.69v-4.362a2.413,2.413,0,1,0-4.826,0V199.8h-3.928v-8.791a2.413,2.413,0,1,0-4.826,0V199.8H632.18V183.169a2.413,2.413,0,1,0-4.826,0V199.8H623.3l-.106-26.84a2.413,2.413,0,0,0-2.413-2.4h-.01a2.413,2.413,0,0,0-2.4,2.423l.106,26.821H614.44V144.15a2.413,2.413,0,0,0-4.826,0V199.8h-3.929V133.187a2.413,2.413,0,0,0-4.826,0V199.8h-3.928V144.15a2.413,2.413,0,0,0-4.826,0V199.8h-3.929v-2a2.413,2.413,0,1,0-4.826,0v2h-3.928v-4.362a2.413,2.413,0,1,0-4.826,0V199.8h-3.929v-8.791a2.413,2.413,0,1,0-4.826,0V199.8h-3.928V183.169a2.413,2.413,0,1,0-4.826,0V199.8h-4.091l-.143-36.157a2.413,2.413,0,0,0-2.413-2.4h-.01a2.413,2.413,0,0,0-2.4,2.423l.143,36.138H544.1V144.15a2.413,2.413,0,0,0-4.826,0V199.8h-3.929V133.187a2.413,2.413,0,1,0-4.826,0V199.8h-3.928V156.686a2.413,2.413,0,1,0-4.826,0V199.8h-3.929V186.064a2.413,2.413,0,0,0-4.826,0V199.8h-3.928v-2a2.413,2.413,0,1,0-4.826,0v2h-3.929v-4.362a2.413,2.413,0,1,0-4.826,0V199.8H491.57v-8.791a2.413,2.413,0,0,0-4.826,0V199.8h-3.929V183.169a2.413,2.413,0,0,0-4.826,0V199.8H473.92l-.117-25.438a2.413,2.413,0,0,0-2.413-2.4h-.011a2.414,2.414,0,0,0-2.4,2.424l.117,25.415h-4.231l-.163-35.264a2.413,2.413,0,0,0-2.413-2.4h-.012a2.414,2.414,0,0,0-2.4,2.424l.163,35.241h-4.091V150.145a2.413,2.413,0,0,0-4.826,0V199.8H447.19V136.135a2.413,2.413,0,1,0-4.826,0V199.8h-3.928V186.064a2.413,2.413,0,0,0-4.826,0V199.8h-4.069l-.117-25.438a2.413,2.413,0,0,0-2.413-2.4H427a2.414,2.414,0,0,0-2.4,2.424l.118,25.415h-4.047V161.907a2.413,2.413,0,0,0-4.826,0V199.8h-3.928V136.135a2.413,2.413,0,0,0-4.826,0V199.8H403.16V150.229a2.413,2.413,0,1,0-4.826,0V199.8h-3.928V186.064a2.413,2.413,0,0,0-4.826,0V199.8h-4.069l-.117-25.438a2.413,2.413,0,0,0-2.413-2.4h-.011a2.414,2.414,0,0,0-2.4,2.424l.117,25.415h-4.047V150.229a2.413,2.413,0,1,0-4.826,0V199.8h-3.928v-81.54a2.413,2.413,0,1,0-4.826,0V199.8h-3.929V136.135a2.413,2.413,0,0,0-4.826,0V199.8h-3.928V150.229a2.413,2.413,0,0,0-4.826,0V199.8H341.62v-40a2.413,2.413,0,1,0-4.826,0v40h-3.928V167.6a2.413,2.413,0,1,0-4.826,0v32.2H324.11V186.064a2.413,2.413,0,0,0-4.826,0V199.8h-3.928v-4.088a2.413,2.413,0,1,0-4.826,0V199.8H306.6v-7.207a2.413,2.413,0,0,0-4.826,0V199.8h-3.929V186.064a2.413,2.413,0,0,0-4.826,0V199.8h-3.928V178.4a2.413,2.413,0,1,0-4.826,0v21.4h-3.929V157.9a2.413,2.413,0,1,0-4.826,0v41.9h-3.928V169.378a2.413,2.413,0,1,0-4.826,0V199.8h-3.929V178.4a2.413,2.413,0,0,0-4.826,0v21.4h-3.928v-7.207a2.413,2.413,0,1,0-4.826,0V199.8h-3.929v-16.35a2.413,2.413,0,0,0-4.826,0V199.8h-3.928v-7.207a2.413,2.413,0,1,0-4.826,0V199.8h-8.092a2.413,2.413,0,1,0,0,4.826h8.092Z" fill="#343b3f"/>
</svg>
